ffmpeg started on 2025-01-21 at 11:39:48
Report written to "D:/Convert/FFMetrics/reports/ssim_report-4.txt"
Log level: 32
Command line:
"C:\\ffmpeg\\bin\\ffmpeg.exe" -hide_banner -nostdin -r 23.976 -i "E:/Convert/files-1/Nanatsu_no_Maken_ga_Shihai_suru_[02]_[AniLibria_TV]_[WEBRip_1080p_HEVC].mkv" -r 23.976 -i "E:/Convert/files-0/Nanatsu_no_Maken_ga_Shihai_suru_[02]_[AniLibria_TV]_[WEBRip_1080p].mkv" -lavfi "[0:v]settb=AVTB,setpts=PTS-STARTPTS,scale=1920:1080:flags=bicubic[main]; [1:v]settb=AVTB,setpts=PTS-STARTPTS[ref]; [main][ref]ssim=eof_action=endall:stats_file='D\\:/Convert/FFMetrics/logs/ssim_logfile-4.txt'" -f null -
Input #0, matroska,webm, from 'E:/Convert/files-1/Nanatsu_no_Maken_ga_Shihai_suru_[02]_[AniLibria_TV]_[WEBRip_1080p_HEVC].mkv':
  Metadata:
    encoder         : libebml v1.4.2 + libmatroska v1.6.4
    creation_time   : 2024-12-07T10:13:51.000000Z
  Duration: 00:23:40.12, start: 0.000000, bitrate: 1056 kb/s
  Stream #0:0(jpn): Video: hevc (Main 10), yuv420p10le(tv, bt709), 1920x1080 [SAR 1:1 DAR 16:9], 23.98 fps, 23.98 tbr, 1k tbn (default)
      Metadata:
        title           : Original [The Foxon]
        BPS             : 820862
        DURATION        : 00:23:40.044000000
        NUMBER_OF_FRAMES: 34047
        NUMBER_OF_BYTES : 145707535
        _STATISTICS_WRITING_APP: mkvmerge v66.0.0 ('Josie') 64-bit
        _STATISTICS_WRITING_DATE_UTC: 2024-12-07 10:13:51
        _STATISTICS_TAGS: BPS DURATION NUMBER_OF_FRAMES NUMBER_OF_BYTES
  Stream #0:1(rus): Audio: aac (LC), 48000 Hz, stereo, fltp (default)
      Metadata:
        title           : AniLibria.TV
        BPS             : 191999
        DURATION        : 00:23:40.117000000
        NUMBER_OF_FRAMES: 66568
        NUMBER_OF_BYTES : 34082731
        _STATISTICS_WRITING_APP: mkvmerge v66.0.0 ('Josie') 64-bit
        _STATISTICS_WRITING_DATE_UTC: 2024-12-07 10:13:51
        _STATISTICS_TAGS: BPS DURATION NUMBER_OF_FRAMES NUMBER_OF_BYTES
  Stream #0:2(rus): Subtitle: ass (ssa) (default)
      Metadata:
        title           : Надписи
        BPS             : 340
        DURATION        : 00:22:14.570000000
        NUMBER_OF_FRAMES: 381
        NUMBER_OF_BYTES : 56799
        _STATISTICS_WRITING_APP: mkvmerge v66.0.0 ('Josie') 64-bit
        _STATISTICS_WRITING_DATE_UTC: 2024-12-07 10:13:51
        _STATISTICS_TAGS: BPS DURATION NUMBER_OF_FRAMES NUMBER_OF_BYTES
  Stream #0:3(rus): Subtitle: ass (ssa)
      Metadata:
        title           : Субтитры
        BPS             : 489
        DURATION        : 00:23:37.340000000
        NUMBER_OF_FRAMES: 749
        NUMBER_OF_BYTES : 86800
        _STATISTICS_WRITING_APP: mkvmerge v66.0.0 ('Josie') 64-bit
        _STATISTICS_WRITING_DATE_UTC: 2024-12-07 10:13:51
        _STATISTICS_TAGS: BPS DURATION NUMBER_OF_FRAMES NUMBER_OF_BYTES
  Stream #0:4: Attachment: ttf
      Metadata:
        filename        : AGPMOD.TTF
        mimetype        : application/x-truetype-font
  Stream #0:5: Attachment: ttf
      Metadata:
        filename        : DFPSNGyosho-W5-CP-Spec.ttf
        mimetype        : application/x-truetype-font
  Stream #0:6: Attachment: ttf
      Metadata:
        filename        : Modernist One.ttf
        mimetype        : application/x-truetype-font
  Stream #0:7: Attachment: ttf
      Metadata:
        filename        : 1125177.TTF
        mimetype        : application/x-truetype-font
  Stream #0:8: Attachment: ttf
      Metadata:
        filename        : Roboto-Medium.ttf
        mimetype        : application/x-truetype-font
  Stream #0:9: Attachment: ttf
      Metadata:
        filename        : Roboto-MediumItalic.ttf
        mimetype        : application/x-truetype-font
  Stream #0:10: Attachment: ttf
      Metadata:
        filename        : arial.ttf
        mimetype        : application/x-truetype-font
  Stream #0:11: Attachment: ttf
      Metadata:
        filename        : arialbd.ttf
        mimetype        : application/x-truetype-font
  Stream #0:12: Attachment: ttf
      Metadata:
        filename        : comic.ttf
        mimetype        : application/x-truetype-font
  Stream #0:13: Attachment: ttf
      Metadata:
        filename        : comicbd.ttf
        mimetype        : application/x-truetype-font
  Stream #0:14: Attachment: ttf
      Metadata:
        filename        : times.ttf
        mimetype        : application/x-truetype-font
  Stream #0:15: Attachment: ttf
      Metadata:
        filename        : timesbd.ttf
        mimetype        : application/x-truetype-font
  Stream #0:16: Attachment: ttf
      Metadata:
        filename        : trebuc.ttf
        mimetype        : application/x-truetype-font
  Stream #0:17: Attachment: ttf
      Metadata:
        filename        : trebucbd.ttf
        mimetype        : application/x-truetype-font
  Stream #0:18: Attachment: ttf
      Metadata:
        filename        : verdana.ttf
        mimetype        : application/x-truetype-font
  Stream #0:19: Attachment: ttf
      Metadata:
        filename        : verdanab.ttf
        mimetype        : application/x-truetype-font
  Stream #0:20: Attachment: ttf
      Metadata:
        filename        : CONSOLA.TTF
        mimetype        : application/x-truetype-font
  Stream #0:21: Attachment: ttf
      Metadata:
        filename        : CONSOLAB.TTF
        mimetype        : application/x-truetype-font
Input #1, matroska,webm, from 'E:/Convert/files-0/Nanatsu_no_Maken_ga_Shihai_suru_[02]_[AniLibria_TV]_[WEBRip_1080p].mkv':
  Metadata:
    encoder         : libebml v1.4.4 + libmatroska v1.7.1
    creation_time   : 2023-07-15T11:47:58.000000Z
  Duration: 00:23:40.12, start: 0.000000, bitrate: 8335 kb/s
  Stream #1:0: Video: h264 (High), yuv420p(tv, bt709, progressive), 1920x1080 [SAR 1:1 DAR 16:9], 23.98 fps, 23.98 tbr, 1k tbn (default)
      Metadata:
        title           : Original
        BPS             : 7971709
        DURATION        : 00:23:40.045000000
        NUMBER_OF_FRAMES: 34047
        NUMBER_OF_BYTES : 1415023222
        _STATISTICS_WRITING_APP: mkvmerge v77.0 ('Elemental') 64-bit
        _STATISTICS_WRITING_DATE_UTC: 2023-07-15 11:47:58
        _STATISTICS_TAGS: BPS DURATION NUMBER_OF_FRAMES NUMBER_OF_BYTES
  Stream #1:1(rus): Audio: aac (LC), 48000 Hz, stereo, fltp (default)
      Metadata:
        title           : AniLibria.TV
        BPS             : 191999
        DURATION        : 00:23:40.117000000
        NUMBER_OF_FRAMES: 66568
        NUMBER_OF_BYTES : 34082731
        _STATISTICS_WRITING_APP: mkvmerge v77.0 ('Elemental') 64-bit
        _STATISTICS_WRITING_DATE_UTC: 2023-07-15 11:47:58
        _STATISTICS_TAGS: BPS DURATION NUMBER_OF_FRAMES NUMBER_OF_BYTES
  Stream #1:2(jpn): Audio: aac (LC), 44100 Hz, stereo, fltp
      Metadata:
        title           : Original
        BPS             : 128000
        DURATION        : 00:23:40.109000000
        NUMBER_OF_FRAMES: 61159
        NUMBER_OF_BYTES : 22721748
        _STATISTICS_WRITING_APP: mkvmerge v77.0 ('Elemental') 64-bit
        _STATISTICS_WRITING_DATE_UTC: 2023-07-15 11:47:58
        _STATISTICS_TAGS: BPS DURATION NUMBER_OF_FRAMES NUMBER_OF_BYTES
  Stream #1:3(rus): Subtitle: ass (ssa) (default)
      Metadata:
        title           : Надписи
        BPS             : 340
        DURATION        : 00:22:14.570000000
        NUMBER_OF_FRAMES: 381
        NUMBER_OF_BYTES : 56799
        _STATISTICS_WRITING_APP: mkvmerge v77.0 ('Elemental') 64-bit
        _STATISTICS_WRITING_DATE_UTC: 2023-07-15 11:47:58
        _STATISTICS_TAGS: BPS DURATION NUMBER_OF_FRAMES NUMBER_OF_BYTES
  Stream #1:4(rus): Subtitle: ass (ssa)
      Metadata:
        title           : Субтитры
        BPS             : 489
        DURATION        : 00:23:37.340000000
        NUMBER_OF_FRAMES: 749
        NUMBER_OF_BYTES : 86800
        _STATISTICS_WRITING_APP: mkvmerge v77.0 ('Elemental') 64-bit
        _STATISTICS_WRITING_DATE_UTC: 2023-07-15 11:47:58
        _STATISTICS_TAGS: BPS DURATION NUMBER_OF_FRAMES NUMBER_OF_BYTES
  Stream #1:5: Attachment: ttf
      Metadata:
        filename        : AGPMOD.TTF
        mimetype        : application/x-truetype-font
  Stream #1:6: Attachment: ttf
      Metadata:
        filename        : DFPSNGyosho-W5-CP-Spec.ttf
        mimetype        : application/x-truetype-font
  Stream #1:7: Attachment: ttf
      Metadata:
        filename        : Modernist One.ttf
        mimetype        : application/x-truetype-font
  Stream #1:8: Attachment: ttf
      Metadata:
        filename        : 1125177.TTF
        mimetype        : application/x-truetype-font
  Stream #1:9: Attachment: ttf
      Metadata:
        filename        : Roboto-Medium.ttf
        mimetype        : application/x-truetype-font
  Stream #1:10: Attachment: ttf
      Metadata:
        filename        : Roboto-MediumItalic.ttf
        mimetype        : application/x-truetype-font
  Stream #1:11: Attachment: ttf
      Metadata:
        filename        : arial.ttf
        mimetype        : application/x-truetype-font
  Stream #1:12: Attachment: ttf
      Metadata:
        filename        : arialbd.ttf
        mimetype        : application/x-truetype-font
  Stream #1:13: Attachment: ttf
      Metadata:
        filename        : comic.ttf
        mimetype        : application/x-truetype-font
  Stream #1:14: Attachment: ttf
      Metadata:
        filename        : comicbd.ttf
        mimetype        : application/x-truetype-font
  Stream #1:15: Attachment: ttf
      Metadata:
        filename        : times.ttf
        mimetype        : application/x-truetype-font
  Stream #1:16: Attachment: ttf
      Metadata:
        filename        : timesbd.ttf
        mimetype        : application/x-truetype-font
  Stream #1:17: Attachment: ttf
      Metadata:
        filename        : trebuc.ttf
        mimetype        : application/x-truetype-font
  Stream #1:18: Attachment: ttf
      Metadata:
        filename        : trebucbd.ttf
        mimetype        : application/x-truetype-font
  Stream #1:19: Attachment: ttf
      Metadata:
        filename        : verdana.ttf
        mimetype        : application/x-truetype-font
  Stream #1:20: Attachment: ttf
      Metadata:
        filename        : verdanab.ttf
        mimetype        : application/x-truetype-font
  Stream #1:21: Attachment: ttf
      Metadata:
        filename        : CONSOLA.TTF
        mimetype        : application/x-truetype-font
  Stream #1:22: Attachment: ttf
      Metadata:
        filename        : CONSOLAB.TTF
        mimetype        : application/x-truetype-font
Stream mapping:
  Stream #0:0 (hevc) -> settb:default
  Stream #1:0 (h264) -> settb:default
  ssim:default -> Stream #0:0 (wrapped_avframe)
  Stream #0:1 -> #0:1 (aac (native) -> pcm_s16le (native))
Output #0, null, to 'pipe:':
  Metadata:
    encoder         : Lavf61.7.100
  Stream #0:0: Video: wrapped_avframe, yuv420p(tv, bt709, progressive), 1920x1080 [SAR 1:1 DAR 16:9], q=2-31, 200 kb/s, 1000k tbn
      Metadata:
        encoder         : Lavc61.19.100 wrapped_avframe
  Stream #0:1(rus): Audio: pcm_s16le, 48000 Hz, stereo, s16, 1536 kb/s (default)
      Metadata:
        title           : AniLibria.TV
        BPS             : 191999
        DURATION        : 00:23:40.117000000
        NUMBER_OF_FRAMES: 66568
        NUMBER_OF_BYTES : 34082731
        _STATISTICS_WRITING_APP: mkvmerge v66.0.0 ('Josie') 64-bit
        _STATISTICS_WRITING_DATE_UTC: 2024-12-07 10:13:51
        _STATISTICS_TAGS: BPS DURATION NUMBER_OF_FRAMES NUMBER_OF_BYTES
        encoder         : Lavc61.19.100 pcm_s16le
frame=  218 fps=0.0 q=-0.0 size=N/A time=00:00:09.05 bitrate=N/A speed=17.7x    frame=  500 fps=490 q=-0.0 size=N/A time=00:00:20.81 bitrate=N/A speed=20.4x    frame=  816 fps=528 q=-0.0 size=N/A time=00:00:33.99 bitrate=N/A speed=  22x    frame= 1123 fps=546 q=-0.0 size=N/A time=00:00:46.79 bitrate=N/A speed=22.8x    frame= 1421 fps=551 q=-0.0 size=N/A time=00:00:59.22 bitrate=N/A speed=22.9x    frame= 1699 fps=550 q=-0.0 size=N/A time=00:01:10.82 bitrate=N/A speed=22.9x    frame= 2014 fps=559 q=-0.0 size=N/A time=00:01:23.95 bitrate=N/A speed=23.3x    frame= 2275 fps=551 q=-0.0 size=N/A time=00:01:34.84 bitrate=N/A speed=  23x    frame= 2515 fps=543 q=-0.0 size=N/A time=00:01:44.85 bitrate=N/A speed=22.6x    frame= 2766 fps=537 q=-0.0 size=N/A time=00:01:55.32 bitrate=N/A speed=22.4x    frame= 2995 fps=528 q=-0.0 size=N/A time=00:02:04.87 bitrate=N/A speed=  22x    frame= 3184 fps=515 q=-0.0 size=N/A time=00:02:12.75 bitrate=N/A speed=21.5x    frame= 3427 fps=511 q=-0.0 size=N/A time=00:02:22.89 bitrate=N/A speed=21.3x    frame= 3662 fps=507 q=-0.0 size=N/A time=00:02:32.69 bitrate=N/A speed=21.2x    frame= 3928 fps=508 q=-0.0 size=N/A time=00:02:43.78 bitrate=N/A speed=21.2x    frame= 4179 fps=506 q=-0.0 size=N/A time=00:02:54.25 bitrate=N/A speed=21.1x    frame= 4464 fps=510 q=-0.0 size=N/A time=00:03:06.14 bitrate=N/A speed=21.2x    frame= 4758 fps=513 q=-0.0 size=N/A time=00:03:18.40 bitrate=N/A speed=21.4x    frame= 5011 fps=512 q=-0.0 size=N/A time=00:03:28.95 bitrate=N/A speed=21.3x    frame= 5189 fps=504 q=-0.0 size=N/A time=00:03:36.38 bitrate=N/A speed=  21x    frame= 5472 fps=505 q=-0.0 size=N/A time=00:03:48.18 bitrate=N/A speed=21.1x    frame= 5742 fps=506 q=-0.0 size=N/A time=00:03:59.44 bitrate=N/A speed=21.1x    frame= 6048 fps=510 q=-0.0 size=N/A time=00:04:12.21 bitrate=N/A speed=21.3x    frame= 6347 fps=513 q=-0.0 size=N/A time=00:04:24.68 bitrate=N/A speed=21.4x    frame= 6624 fps=514 q=-0.0 size=N/A time=00:04:36.23 bitrate=N/A speed=21.4x    frame= 6942 fps=518 q=-0.0 size=N/A time=00:04:49.49 bitrate=N/A speed=21.6x    frame= 7227 fps=519 q=-0.0 size=N/A time=00:05:01.38 bitrate=N/A speed=21.6x    frame= 7531 fps=522 q=-0.0 size=N/A time=00:05:14.06 bitrate=N/A speed=21.8x    frame= 7848 fps=525 q=-0.0 size=N/A time=00:05:27.28 bitrate=N/A speed=21.9x    frame= 8131 fps=526 q=-0.0 size=N/A time=00:05:39.08 bitrate=N/A speed=21.9x    frame= 8442 fps=528 q=-0.0 size=N/A time=00:05:52.06 bitrate=N/A speed=  22x    frame= 8765 fps=531 q=-0.0 size=N/A time=00:06:05.53 bitrate=N/A speed=22.2x    frame= 9024 fps=530 q=-0.0 size=N/A time=00:06:16.33 bitrate=N/A speed=22.1x    frame= 9306 fps=531 q=-0.0 size=N/A time=00:06:28.09 bitrate=N/A speed=22.2x    frame= 9583 fps=531 q=-0.0 size=N/A time=00:06:39.64 bitrate=N/A speed=22.1x    frame= 9873 fps=532 q=-0.0 size=N/A time=00:06:51.74 bitrate=N/A speed=22.2x    frame=10135 fps=531 q=-0.0 size=N/A time=00:07:02.67 bitrate=N/A speed=22.2x    frame=10379 fps=530 q=-0.0 size=N/A time=00:07:12.84 bitrate=N/A speed=22.1x    frame=10608 fps=528 q=-0.0 size=N/A time=00:07:22.40 bitrate=N/A speed=  22x    frame=10837 fps=525 q=-0.0 size=N/A time=00:07:31.95 bitrate=N/A speed=21.9x    frame=11030 fps=522 q=-0.0 size=N/A time=00:07:40.00 bitrate=N/A speed=21.8x    frame=11277 fps=521 q=-0.0 size=N/A time=00:07:50.30 bitrate=N/A speed=21.7x    frame=11477 fps=518 q=-0.0 size=N/A time=00:07:58.64 bitrate=N/A speed=21.6x    frame=11739 fps=518 q=-0.0 size=N/A time=00:08:09.57 bitrate=N/A speed=21.6x    frame=12034 fps=519 q=-0.0 size=N/A time=00:08:21.87 bitrate=N/A speed=21.6x    frame=12315 fps=519 q=-0.0 size=N/A time=00:08:33.59 bitrate=N/A speed=21.7x    frame=12562 fps=519 q=-0.0 size=N/A time=00:08:43.89 bitrate=N/A speed=21.6x    frame=12802 fps=517 q=-0.0 size=N/A time=00:08:53.90 bitrate=N/A speed=21.6x    frame=13085 fps=518 q=-0.0 size=N/A time=00:09:05.71 bitrate=N/A speed=21.6x    frame=13372 fps=519 q=-0.0 size=N/A time=00:09:17.68 bitrate=N/A speed=21.6x    frame=13676 fps=520 q=-0.0 size=N/A time=00:09:30.36 bitrate=N/A speed=21.7x    frame=13960 fps=521 q=-0.0 size=N/A time=00:09:42.20 bitrate=N/A speed=21.7x    frame=14262 fps=522 q=-0.0 size=N/A time=00:09:54.80 bitrate=N/A speed=21.8x    frame=14562 fps=523 q=-0.0 size=N/A time=00:10:07.31 bitrate=N/A speed=21.8x    frame=14850 fps=524 q=-0.0 size=N/A time=00:10:19.32 bitrate=N/A speed=21.8x    frame=15166 fps=525 q=-0.0 size=N/A time=00:10:32.50 bitrate=N/A speed=21.9x    frame=15452 fps=526 q=-0.0 size=N/A time=00:10:44.43 bitrate=N/A speed=21.9x    frame=15712 fps=526 q=-0.0 size=N/A time=00:10:55.28 bitrate=N/A speed=21.9x    frame=15992 fps=526 q=-0.0 size=N/A time=00:11:06.95 bitrate=N/A speed=21.9x    frame=16276 fps=526 q=-0.0 size=N/A time=00:11:18.80 bitrate=N/A speed=21.9x    frame=16507 fps=525 q=-0.0 size=N/A time=00:11:28.43 bitrate=N/A speed=21.9x    frame=16745 fps=524 q=-0.0 size=N/A time=00:11:38.36 bitrate=N/A speed=21.8x    frame=16977 fps=523 q=-0.0 size=N/A time=00:11:48.04 bitrate=N/A speed=21.8x    frame=17205 fps=521 q=-0.0 size=N/A time=00:11:57.55 bitrate=N/A speed=21.7x    frame=17438 fps=520 q=-0.0 size=N/A time=00:12:07.26 bitrate=N/A speed=21.7x    frame=17725 fps=521 q=-0.0 size=N/A time=00:12:19.23 bitrate=N/A speed=21.7x    frame=17959 fps=520 q=-0.0 size=N/A time=00:12:28.99 bitrate=N/A speed=21.7x    frame=18219 fps=520 q=-0.0 size=N/A time=00:12:39.84 bitrate=N/A speed=21.7x    frame=18479 fps=519 q=-0.0 size=N/A time=00:12:50.68 bitrate=N/A speed=21.7x    frame=18722 fps=519 q=-0.0 size=N/A time=00:13:00.82 bitrate=N/A speed=21.6x    frame=18966 fps=518 q=-0.0 size=N/A time=00:13:10.99 bitrate=N/A speed=21.6x    frame=19248 fps=518 q=-0.0 size=N/A time=00:13:22.76 bitrate=N/A speed=21.6x    frame=19525 fps=519 q=-0.0 size=N/A time=00:13:34.31 bitrate=N/A speed=21.6x    frame=19824 fps=520 q=-0.0 size=N/A time=00:13:46.78 bitrate=N/A speed=21.7x    frame=20121 fps=520 q=-0.0 size=N/A time=00:13:59.17 bitrate=N/A speed=21.7x    frame=20415 fps=521 q=-0.0 size=N/A time=00:14:11.43 bitrate=N/A speed=21.7x    frame=20718 fps=522 q=-0.0 size=N/A time=00:14:24.07 bitrate=N/A speed=21.8x    frame=20976 fps=522 q=-0.0 size=N/A time=00:14:34.83 bitrate=N/A speed=21.8x    frame=21295 fps=523 q=-0.0 size=N/A time=00:14:48.13 bitrate=N/A speed=21.8x    frame=21569 fps=523 q=-0.0 size=N/A time=00:14:59.56 bitrate=N/A speed=21.8x    frame=21839 fps=523 q=-0.0 size=N/A time=00:15:10.82 bitrate=N/A speed=21.8x    frame=22073 fps=522 q=-0.0 size=N/A time=00:15:20.58 bitrate=N/A speed=21.8x    frame=22368 fps=523 q=-0.0 size=N/A time=00:15:32.89 bitrate=N/A speed=21.8x    frame=22699 fps=524 q=-0.0 size=N/A time=00:15:46.69 bitrate=N/A speed=21.9x    frame=23008 fps=525 q=-0.0 size=N/A time=00:15:59.58 bitrate=N/A speed=21.9x    frame=23309 fps=526 q=-0.0 size=N/A time=00:16:12.13 bitrate=N/A speed=21.9x    frame=23626 fps=527 q=-0.0 size=N/A time=00:16:25.36 bitrate=N/A speed=  22x    frame=23955 fps=528 q=-0.0 size=N/A time=00:16:39.08 bitrate=N/A speed=  22x    frame=24302 fps=530 q=-0.0 size=N/A time=00:16:53.55 bitrate=N/A speed=22.1x    frame=24591 fps=530 q=-0.0 size=N/A time=00:17:05.60 bitrate=N/A speed=22.1x    frame=24864 fps=530 q=-0.0 size=N/A time=00:17:16.99 bitrate=N/A speed=22.1x    frame=25152 fps=530 q=-0.0 size=N/A time=00:17:29.00 bitrate=N/A speed=22.1x    frame=25489 fps=532 q=-0.0 size=N/A time=00:17:43.06 bitrate=N/A speed=22.2x    frame=25753 fps=531 q=-0.0 size=N/A time=00:17:54.07 bitrate=N/A speed=22.2x    frame=26025 fps=531 q=-0.0 size=N/A time=00:18:05.41 bitrate=N/A speed=22.2x    frame=26329 fps=532 q=-0.0 size=N/A time=00:18:18.09 bitrate=N/A speed=22.2x    frame=26594 fps=532 q=-0.0 size=N/A time=00:18:29.15 bitrate=N/A speed=22.2x    frame=26879 fps=532 q=-0.0 size=N/A time=00:18:41.03 bitrate=N/A speed=22.2x    frame=27137 fps=532 q=-0.0 size=N/A time=00:18:51.79 bitrate=N/A speed=22.2x    frame=27443 fps=532 q=-0.0 size=N/A time=00:19:04.56 bitrate=N/A speed=22.2x    frame=27768 fps=533 q=-0.0 size=N/A time=00:19:18.11 bitrate=N/A speed=22.2x    frame=28079 fps=534 q=-0.0 size=N/A time=00:19:31.08 bitrate=N/A speed=22.3x    frame=28407 fps=535 q=-0.0 size=N/A time=00:19:44.76 bitrate=N/A speed=22.3x    frame=28751 fps=536 q=-0.0 size=N/A time=00:19:59.11 bitrate=N/A speed=22.4x    frame=29071 fps=537 q=-0.0 size=N/A time=00:20:12.46 bitrate=N/A speed=22.4x    frame=29380 fps=538 q=-0.0 size=N/A time=00:20:25.35 bitrate=N/A speed=22.4x    frame=29714 fps=539 q=-0.0 size=N/A time=00:20:39.28 bitrate=N/A speed=22.5x    frame=30036 fps=539 q=-0.0 size=N/A time=00:20:52.71 bitrate=N/A speed=22.5x    frame=30344 fps=540 q=-0.0 size=N/A time=00:21:05.55 bitrate=N/A speed=22.5x    frame=30645 fps=540 q=-0.0 size=N/A time=00:21:18.11 bitrate=N/A speed=22.5x    frame=30934 fps=541 q=-0.0 size=N/A time=00:21:30.16 bitrate=N/A speed=22.5x    frame=31257 fps=541 q=-0.0 size=N/A time=00:21:43.63 bitrate=N/A speed=22.6x    frame=31536 fps=541 q=-0.0 size=N/A time=00:21:55.27 bitrate=N/A speed=22.6x    frame=31841 fps=542 q=-0.0 size=N/A time=00:22:07.99 bitrate=N/A speed=22.6x    frame=32173 fps=543 q=-0.0 size=N/A time=00:22:21.84 bitrate=N/A speed=22.6x    frame=32496 fps=543 q=-0.0 size=N/A time=00:22:35.31 bitrate=N/A speed=22.7x    frame=32822 fps=544 q=-0.0 size=N/A time=00:22:48.91 bitrate=N/A speed=22.7x    frame=33144 fps=545 q=-0.0 size=N/A time=00:23:02.34 bitrate=N/A speed=22.7x    frame=33442 fps=545 q=-0.0 size=N/A time=00:23:14.76 bitrate=N/A speed=22.7x    frame=33770 fps=546 q=-0.0 size=N/A time=00:23:28.45 bitrate=N/A speed=22.8x    [Parsed_ssim_5 @ 000001c0fa9b6740] SSIM Y:0.992336 (21.155416) U:0.989262 (19.690947) V:0.986813 (18.798433) All:0.990903 (20.411091)
[out#0/null @ 000001c0f2e86500] video:14630KiB audio:266272KiB subtitle:0KiB other streams:0KiB global headers:0KiB muxing overhead: unknown
frame=34047 fps=546 q=-0.0 Lsize=N/A time=00:23:40.00 bitrate=N/A speed=22.8x    
